<svg width="60" height="60" viewBox="0 0 60 60" fill="none" xmlns="http://www.w3.org/2000/svg">
<path d="M30 57.5C45.1875 57.5 57.5 45.1875 57.5 30C57.5 14.8125 45.1875 2.5 30 2.5C14.8125 2.5 2.5 14.8125 2.5 30C2.5 45.1875 14.8125 57.5 30 57.5Z" fill="#66E1FF"/>
<path d="M10.7824 37.1775C10.7817 32.3743 12.039 27.6546 14.4292 23.4884C16.8195 19.3221 20.2593 15.8546 24.4062 13.4309C28.5531 11.0072 33.2624 9.712 38.0655 9.67412C42.8686 9.63623 47.5978 10.857 51.7824 13.215C49.2935 9.98826 46.1186 7.35503 42.4872 5.50572C38.8559 3.65642 34.859 2.63728 30.7855 2.52199C26.7121 2.40671 22.6639 3.19818 18.9338 4.83915C15.2037 6.48012 11.8849 8.92957 9.21749 12.0104C6.55007 15.0911 4.60067 18.7262 3.51028 22.6527C2.4199 26.5792 2.21579 30.699 2.91272 34.7141C3.60964 38.7291 5.19019 42.5391 7.54003 45.8685C9.88988 49.1978 12.9503 51.9633 16.4999 53.965C12.7841 49.1586 10.7726 43.2527 10.7824 37.1775Z" fill="#C2F3FF"/>
<path d="M30 57.5C45.1875 57.5 57.5 45.1875 57.5 30C57.5 14.8125 45.1875 2.5 30 2.5C14.8125 2.5 2.5 14.8125 2.5 30C2.5 45.1875 14.8125 57.5 30 57.5Z" stroke="#191919" stroke-width="2.5" stroke-linecap="round" stroke-linejoin="round"/>
<path d="M22.2274 25.2175C23.6543 25.2175 25.0227 24.6507 26.0316 23.6418C27.0406 22.6328 27.6074 21.2644 27.6074 19.8375C27.6074 18.4107 27.0406 17.0422 26.0316 16.0333C25.0227 15.0243 23.6543 14.4575 22.2274 14.4575C20.8005 14.4575 19.4321 15.0243 18.4232 16.0333C17.4142 17.0422 16.8474 18.4107 16.8474 19.8375C16.8474 21.2644 17.4142 22.6328 18.4232 23.6418C19.4321 24.6507 20.8005 25.2175 22.2274 25.2175ZM35.3824 46.74C36.1754 46.74 36.9359 46.425 37.4967 45.8643C38.0574 45.3035 38.3724 44.543 38.3724 43.75C38.3724 42.957 38.0574 42.1965 37.4967 41.6358C36.9359 41.075 36.1754 40.76 35.3824 40.76C34.5894 40.76 33.8289 41.075 33.2682 41.6358C32.7074 42.1965 32.3924 42.957 32.3924 43.75C32.3924 44.543 32.7074 45.3035 33.2682 45.8643C33.8289 46.425 34.5894 46.74 35.3824 46.74ZM46.1424 30C46.692 30 47.2362 29.8918 47.7439 29.6815C48.2517 29.4711 48.713 29.1629 49.1017 28.7743C49.4903 28.3856 49.7985 27.9243 50.0088 27.4165C50.2192 26.9088 50.3274 26.3646 50.3274 25.815C50.3274 25.2654 50.2192 24.7212 50.0088 24.2135C49.7985 23.7057 49.4903 23.2444 49.1017 22.8558C48.713 22.4672 48.2517 22.1589 47.7439 21.9486C47.2362 21.7383 46.692 21.63 46.1424 21.63C45.0325 21.63 43.968 22.0709 43.1832 22.8558C42.3983 23.6406 41.9574 24.7051 41.9574 25.815C41.9574 26.925 42.3983 27.9894 43.1832 28.7743C43.968 29.5591 45.0325 30 46.1424 30Z" fill="#FFEF5E" stroke="#191919" stroke-width="2.5" stroke-linecap="round" stroke-linejoin="round"/>
<path d="M27.61 19.2449C32.9553 19.4472 38.0487 21.5683 41.9575 25.2199M46.98 29.9199L47.935 31.1949C47.935 31.1949 51.5225 35.9824 51.5225 46.7449M41.5325 5.02738L41.9575 6.09238C43.6895 11.2177 44.4987 16.6095 44.3475 22.0174M43.15 28.8099C42.8526 33.75 41.0737 38.4858 38.045 42.3999M33.95 46.3749L33.5875 46.7449C33.5875 46.7449 27.61 52.7199 14.4575 52.7199M30 2.50488C26.7273 6.00303 24.0971 10.0508 22.23 14.4624" stroke="#191919" stroke-width="2.5" stroke-linecap="round" stroke-linejoin="round"/>
<path d="M19.4351 24.4374L19.2401 25.2224C17.9365 31.6893 18.7755 38.405 21.6301 44.3524C25.6951 52.4974 35.9801 56.3099 35.9801 56.3099L36.8701 56.6424M16.8501 19.8374C16.8501 19.8374 7.6626 20.4949 3.0376 24.5549" stroke="#191919" stroke-width="2.5" stroke-linecap="round" stroke-linejoin="round"/>
<path d="M3.16992 36.0599L3.69492 35.9849C3.69492 35.9849 20.1499 33.4524 33.5249 41.4099" stroke="#191919" stroke-width="2.5" stroke-linecap="round" stroke-linejoin="round"/>
</svg>
