<svg width="28" height="28" viewBox="0 0 28 28" fill="none" xmlns="http://www.w3.org/2000/svg">
<path d="M11.9502 19.0328L7 14.0815L8.64967 12.4318L11.9502 15.7312L18.5488 9.13135L20.1997 10.7822L11.9502 19.0328Z" fill="#6BA368"/>
<path fill-rule="evenodd" clip-rule="evenodd" d="M1.3999 6.06657C1.3999 4.82889 1.89157 3.64191 2.76674 2.76674C3.64191 1.89157 4.82889 1.3999 6.06657 1.3999H22.3999C23.6376 1.3999 24.8246 1.89157 25.6997 2.76674C26.5749 3.64191 27.0666 4.82889 27.0666 6.06657V22.3999C27.0666 23.6376 26.5749 24.8246 25.6997 25.6997C24.8246 26.5749 23.6376 27.0666 22.3999 27.0666H6.06657C4.82889 27.0666 3.64191 26.5749 2.76674 25.6997C1.89157 24.8246 1.3999 23.6376 1.3999 22.3999V6.06657ZM6.06657 3.73324H22.3999C23.0187 3.73324 23.6122 3.97907 24.0498 4.41665C24.4874 4.85424 24.7332 5.44773 24.7332 6.06657V22.3999C24.7332 23.0187 24.4874 23.6122 24.0498 24.0498C23.6122 24.4874 23.0187 24.7332 22.3999 24.7332H6.06657C5.44773 24.7332 4.85424 24.4874 4.41665 24.0498C3.97907 23.6122 3.73324 23.0187 3.73324 22.3999V6.06657C3.73324 5.44773 3.97907 4.85424 4.41665 4.41665C4.85424 3.97907 5.44773 3.73324 6.06657 3.73324Z" fill="#6BA368"/>
</svg>
