<svg width="40" height="40" viewBox="0 0 40 40" fill="none" xmlns="http://www.w3.org/2000/svg">
<rect width="40" height="40" rx="20" fill="#373743"/>
<path d="M16.8399 24.6957L27.8013 12.1122C28.0599 11.8152 28.3617 11.6667 28.7066 11.6667C29.0515 11.6667 29.3533 11.8152 29.612 12.1122C29.8707 12.4091 30 12.762 30 13.1708C30 13.5796 29.8707 13.932 29.612 14.228L17.7453 27.888C17.4866 28.1849 17.1848 28.3334 16.8399 28.3334C16.495 28.3334 16.1933 28.1849 15.9346 27.888L10.3731 21.5034C10.1144 21.2065 9.99025 20.8541 10.0006 20.4463C10.0109 20.0384 10.1459 19.6856 10.4054 19.3876C10.665 19.0897 10.9724 18.9412 11.3276 18.9422C11.6828 18.9432 11.9898 19.0916 12.2485 19.3876L16.8399 24.6957Z" fill="#F08143"/>
</svg>
