<svg width="40" height="40" viewBox="0 0 40 40" fill="none" xmlns="http://www.w3.org/2000/svg">
<path d="M33.62 11.25H30.5183L22.9083 18.8566C23.1704 19.5246 23.1945 20.2625 22.9766 20.9461C22.7586 21.6298 22.3119 22.2176 21.7115 22.6106C21.1112 23.0036 20.3938 23.178 19.6801 23.1043C18.9663 23.0306 18.2996 22.7134 17.7922 22.206C17.2849 21.6986 16.9676 21.032 16.894 20.3182C16.8203 19.6044 16.9946 18.8871 17.3876 18.2867C17.7807 17.6863 18.3685 17.2396 19.0521 17.0217C19.7358 16.8037 20.4736 16.8278 21.1416 17.09L28.75 9.48162V6.37995C28.7501 5.96492 28.915 5.5669 29.2083 5.27329L32.0916 2.38995C32.145 2.33625 32.212 2.2981 32.2854 2.2796C32.3588 2.2611 32.4359 2.26295 32.5083 2.28495C32.6566 2.32829 32.7666 2.45162 32.7966 2.60329L33.5633 6.43829L37.3966 7.20495C37.5466 7.23495 37.67 7.34495 37.7133 7.49329C37.7352 7.56534 37.7371 7.64198 37.7189 7.71505C37.7007 7.78813 37.6631 7.85491 37.61 7.90829L34.725 10.7916C34.4318 11.0845 34.0344 11.2494 33.62 11.25Z" fill="#373743"/>
<path d="M4.375 20C4.375 24.144 6.0212 28.1183 8.95146 31.0486C11.8817 33.9788 15.856 35.625 20 35.625C22.0519 35.625 24.0837 35.2209 25.9794 34.4356C27.8751 33.6504 29.5976 32.4995 31.0485 31.0486C32.4995 29.5976 33.6504 27.8751 34.4356 25.9794C35.2208 24.0837 35.625 22.0519 35.625 20C35.625 18.5033 35.415 17.0567 35.0233 15.6883C34.9455 15.3742 34.9925 15.042 35.1546 14.7618C35.3167 14.4816 35.5811 14.2752 35.8922 14.1861C36.2034 14.0969 36.537 14.1319 36.8229 14.2837C37.1088 14.4355 37.3246 14.6923 37.425 15C37.8817 16.59 38.125 18.2667 38.125 20C38.125 30.01 30.01 38.125 20 38.125C9.99 38.125 1.875 30.01 1.875 20C1.875 9.99001 9.99 1.87501 20 1.87501C21.6917 1.87334 23.3733 2.10834 25 2.57334C25.1586 2.61783 25.3069 2.69323 25.4362 2.79521C25.5656 2.89718 25.6735 3.02372 25.7538 3.16755C25.8341 3.31138 25.8852 3.46967 25.9041 3.6333C25.923 3.79694 25.9094 3.9627 25.8641 4.12106C25.8187 4.27942 25.7425 4.42725 25.6398 4.55606C25.5372 4.68487 25.41 4.79211 25.2658 4.87162C25.1215 4.95114 24.9629 5.00135 24.7992 5.01938C24.6355 5.03741 24.4698 5.02289 24.3117 4.97668C22.9094 4.57644 21.4582 4.37393 20 4.37501C15.856 4.37501 11.8817 6.02121 8.95146 8.95147C6.0212 11.8817 4.375 15.856 4.375 20Z" fill="#373743"/>
<path d="M11.8749 20C11.8795 21.1039 12.1091 22.1952 12.5496 23.2074C12.9901 24.2196 13.6323 25.1314 14.437 25.8871C15.2416 26.6428 16.1919 27.2266 17.2296 27.6028C18.2674 27.979 19.371 28.1398 20.473 28.0752C21.575 28.0107 22.6523 27.7222 23.6391 27.2275C24.6259 26.7327 25.5015 26.042 26.2124 25.1975C26.9234 24.3531 27.4547 23.3726 27.7741 22.3159C28.0935 21.2592 28.1941 20.1486 28.0699 19.0517C28.0349 18.8295 28.0606 18.6021 28.1444 18.3934C28.2282 18.1847 28.3668 18.0025 28.5457 17.8662C28.7245 17.7298 28.9369 17.6444 29.1604 17.619C29.3838 17.5936 29.61 17.6291 29.8149 17.7217C30.2332 17.9084 30.5149 18.3067 30.5516 18.7634C30.8103 20.9554 30.3798 23.1737 29.3197 25.1098C28.2596 27.0458 26.6227 28.6036 24.6365 29.5664C22.6503 30.5293 20.4134 30.8495 18.2369 30.4824C16.0603 30.1154 14.0522 29.0793 12.4916 27.5184C10.9314 25.9591 9.89511 23.9529 9.52644 21.7781C9.15777 19.6034 9.47499 17.3678 10.4341 15.3814C11.3932 13.3951 12.9467 11.7564 14.879 10.6927C16.8114 9.62894 19.0269 9.1929 21.2182 9.44502C21.3839 9.46039 21.5448 9.50867 21.6916 9.58704C21.8383 9.66541 21.968 9.77229 22.0729 9.90141C22.1778 10.0305 22.2559 10.1793 22.3025 10.339C22.3492 10.4987 22.3635 10.6661 22.3447 10.8314C22.3258 10.9967 22.2742 11.1565 22.1927 11.3016C22.1113 11.4467 22.0017 11.574 21.8704 11.6762C21.7391 11.7784 21.5887 11.8533 21.4281 11.8966C21.2674 11.9399 21.0998 11.9507 20.9349 11.9284C19.7966 11.7968 18.6434 11.9074 17.5508 12.2529C16.4583 12.5985 15.4512 13.1712 14.5956 13.9334C13.7401 14.6956 13.0554 15.6302 12.5865 16.6757C12.1176 17.7213 11.8751 18.8541 11.8749 20Z" fill="#373743"/>
</svg>
