<svg width="28" height="28" viewBox="0 0 28 28" fill="none" xmlns="http://www.w3.org/2000/svg">
<path fill-rule="evenodd" clip-rule="evenodd" d="M25.165 6.51007C25.8612 6.51007 26.5289 6.78664 27.0212 7.27892C27.5135 7.7712 27.79 8.43888 27.79 9.13507C27.79 9.83127 27.5135 10.4989 27.0212 10.9912C26.5289 11.4835 25.8612 11.7601 25.165 11.7601H21.1904C21.3664 12.0961 21.4675 12.4663 21.4867 12.8452C21.5059 13.224 21.4429 13.6026 21.3019 13.9547C21.1608 14.3069 20.9452 14.6243 20.6698 14.8852C20.3944 15.146 20.0657 15.3442 19.7064 15.4659C19.9484 15.8636 20.0802 16.3185 20.0882 16.784C20.0963 17.2494 19.9804 17.7086 19.7524 18.1145C19.5244 18.5204 19.1925 18.8583 18.7908 19.0935C18.389 19.3287 17.932 19.4528 17.4664 19.4531H17.171C17.2494 19.6752 17.2891 19.9095 17.29 20.1559V20.6795C17.29 22.1299 16.114 23.3045 14.665 23.3045H9.68104L9.59004 23.3115C6.59404 23.3115 4.45624 22.1775 3.08704 20.4163C1.73884 18.6831 1.19004 16.4151 1.19004 14.2115C1.19004 11.9855 1.74864 10.1025 2.79024 8.49387C3.82344 6.89647 5.31024 5.60567 7.11624 4.51927C7.83477 4.04867 8.56244 3.59219 9.29884 3.15007C11.9126 1.56387 15.19 3.48607 15.19 6.51007H25.165ZM7.82744 5.64487L7.84004 5.63507C8.54699 5.17162 9.26299 4.72214 9.98764 4.28687C11.69 3.25507 13.86 4.49127 13.86 6.51007V6.58007H11.69C11.523 6.58007 11.3627 6.64645 11.2446 6.7646C11.1264 6.88274 11.06 7.04299 11.06 7.21007C11.06 7.37716 11.1264 7.5374 11.2446 7.65555C11.3627 7.7737 11.523 7.84007 11.69 7.84007H25.165C25.5085 7.84007 25.8379 7.97651 26.0807 8.21937C26.3236 8.46223 26.46 8.79162 26.46 9.13507C26.46 9.47853 26.3236 9.80792 26.0807 10.0508C25.8379 10.2936 25.5085 10.4301 25.165 10.4301L15.19 10.4259C15.023 10.4259 14.8627 10.4922 14.7446 10.6104C14.6264 10.7285 14.56 10.8888 14.56 11.0559C14.56 11.223 14.6264 11.3832 14.7446 11.5014C14.8627 11.6195 15.023 11.6859 15.19 11.6859H18.8986C19.2319 11.7051 19.5449 11.8521 19.7725 12.0963C20 12.3406 20.1246 12.6632 20.1203 12.9969C20.116 13.3307 19.983 13.65 19.7492 13.8882C19.5154 14.1264 19.1987 14.2653 18.865 14.2759H15.75C15.583 14.2759 15.4227 14.3422 15.3046 14.4604C15.1864 14.5785 15.12 14.7388 15.12 14.9059C15.12 15.073 15.1864 15.2332 15.3046 15.3514C15.4227 15.4695 15.583 15.5359 15.75 15.5359H16.506C16.5343 15.5399 16.5629 15.5418 16.5914 15.5415L17.465 15.5387C17.6349 15.5385 17.8032 15.5718 17.9602 15.6366C18.1172 15.7014 18.2599 15.7966 18.3802 15.9166C18.5004 16.0366 18.5959 16.1791 18.661 16.3359C18.7262 16.4928 18.7599 16.661 18.76 16.8309C18.7602 17.0008 18.7269 17.169 18.6621 17.326C18.5973 17.483 18.5021 17.6257 18.3821 17.746C18.2622 17.8662 18.1196 17.9617 17.9628 18.0269C17.8059 18.092 17.6377 18.1257 17.4678 18.1259H14.49C14.323 18.1259 14.1627 18.1922 14.0446 18.3104C13.9264 18.4285 13.86 18.5888 13.86 18.7559C13.86 18.923 13.9264 19.0832 14.0446 19.2014C14.1627 19.3195 14.323 19.3859 14.49 19.3859H15.19C15.3943 19.3859 15.5901 19.467 15.7345 19.6114C15.8789 19.7558 15.96 19.9517 15.96 20.1559V20.6795C15.96 21.3949 15.3804 21.9745 14.665 21.9745H9.59004C9.56204 21.9745 9.53544 21.9763 9.51024 21.9801L9.50044 21.9815C6.92724 21.9591 5.22064 20.9917 4.13844 19.6001C3.02404 18.1665 2.52004 16.2177 2.52004 14.2101C2.52004 12.2221 3.01564 10.5939 3.90604 9.21627C4.80204 7.83027 6.12084 6.66827 7.81484 5.65187L7.82744 5.64487Z" fill="#F08143"/>
</svg>
