<svg width="48" height="44" viewBox="0 0 48 44" fill="none" xmlns="http://www.w3.org/2000/svg">
<path d="M7.56055 10.902C7.96961 11.1786 8.54247 11.5549 9.19824 11.9528C10.5028 12.7443 12.1612 13.6381 13.5117 13.9918L13.5938 14.0133L13.6729 13.9801C13.8919 13.8875 14.5992 13.6944 15.585 13.4752C16.5609 13.2583 17.7859 13.0213 19.0215 12.8375C20.2585 12.6535 21.4986 12.5243 22.5088 12.5211C23.0144 12.5195 23.4547 12.5495 23.8037 12.6168C24.1602 12.6856 24.3855 12.7866 24.501 12.8981L24.6328 13.025L24.793 12.9391C25.213 12.7145 25.8573 12.4993 26.5693 12.4166C27.1922 12.3443 27.8511 12.376 28.4482 12.5768L28.7002 12.6735C31.1343 13.7886 31.9969 13.7925 35.0615 14.2721L35.1475 14.2858L35.2227 14.2428L41.1045 10.9303L41.9629 22.8053L35.2988 25.7594L34.9561 25.9108L35.2285 26.1686C36.2332 27.1213 36.2703 28.304 35.8281 29.1071C35.6056 29.5111 35.2638 29.8162 34.8633 29.9576C34.467 30.0976 33.9948 30.084 33.4902 29.8219L32.708 29.4156L33.1611 30.1725C33.7313 31.126 33.4656 32.1346 32.8262 32.7516C32.1883 33.3669 31.1961 33.5767 30.2949 32.9342L29.7168 32.5221L29.9092 33.2057C30.1742 34.1475 29.7141 35.035 28.9727 35.4752C28.2432 35.9083 27.2481 35.9011 26.4326 35.0289L25.8594 34.4166L26.0039 35.2428C26.2703 36.7687 24.7358 37.9896 23.3418 37.442L23.333 37.4391L23.3232 37.4362L22.9902 37.3239C22.1961 37.034 21.2864 36.5482 20.3057 35.9489L20.1299 35.8414L19.9912 35.9938C18.5995 37.5125 16.2934 36.1232 16.8887 34.2438L17.1445 33.4371L16.4912 33.9762C15.8281 34.5232 15.0626 34.5048 14.4814 34.1598C13.8949 33.8114 13.4995 33.1312 13.5986 32.3434L13.6699 31.776L13.2041 32.109C11.6902 33.195 9.77722 31.6344 10.5049 29.9362L10.7441 29.3785L10.1816 29.6061C9.3635 29.936 8.52496 29.6096 8.06836 28.9781C7.62067 28.3588 7.54018 27.4381 8.29004 26.5631L8.38672 26.4498L8.33398 26.3102L8.33301 26.3092L8.33203 26.3073C8.3312 26.3051 8.32975 26.3017 8.32812 26.2975C8.32483 26.2889 8.32071 26.2757 8.31445 26.2594C8.30192 26.2267 8.28293 26.1791 8.26074 26.1207C8.21639 26.0041 8.15607 25.8437 8.09082 25.6686C7.95918 25.3152 7.8119 24.9085 7.73926 24.6754L7.69629 24.5387L7.55566 24.5065L5.96973 24.1422L7.25781 10.693C7.34504 10.7533 7.44589 10.8244 7.56055 10.902Z" fill="#FED0AC" stroke="#373743" stroke-width="0.5"/>
<path d="M20.5239 32.5526C20.6017 32.6321 20.6734 32.7186 20.7358 32.8124C21.0907 33.3448 21.1886 34.1168 20.7104 35.0009L20.2729 35.6034L20.2651 35.6132L20.2593 35.6239C20.0626 35.9619 19.8343 36.2031 19.5952 36.368C19.7433 36.2116 19.8825 36.029 20.0093 35.8173L20.4517 35.2098L20.4604 35.1981L20.4673 35.1864C21.0286 34.2002 20.9484 33.2474 20.5239 32.5526ZM29.3071 32.7079C29.5176 32.9287 29.6892 33.1059 29.7749 33.1942C30.0755 34.2787 29.4049 35.2948 28.4634 35.618C28.803 35.3497 29.0773 34.9961 29.2466 34.5917C29.4971 33.993 29.5157 33.2916 29.2036 32.5985C29.2392 32.6359 29.2738 32.6729 29.3071 32.7079ZM18.4077 29.0331C18.4677 29.1065 18.5235 29.1846 18.5718 29.2675C18.8954 29.8241 18.9415 30.5965 18.394 31.4139L16.9702 33.4755C16.8112 33.7022 16.6338 33.8802 16.4487 34.0184C16.4987 33.9618 16.5495 33.9031 16.5981 33.8397L16.7056 33.6923L18.1304 31.6298C18.6983 30.8115 18.7713 29.9702 18.5161 29.2782C18.485 29.1938 18.4481 29.1122 18.4077 29.0331ZM32.7437 29.8768C32.8757 29.9704 33.0078 30.0548 33.1255 30.1073C33.8237 31.351 33.1274 32.6888 32.0796 33.1014C32.4338 32.8084 32.715 32.4285 32.8774 31.9969C33.1323 31.3196 33.0923 30.5323 32.6235 29.786C32.6654 29.8173 32.7046 29.8491 32.7437 29.8768ZM13.0601 32.1454C13.033 32.1607 13.006 32.1753 12.979 32.1893C13.0091 32.1645 13.039 32.1388 13.0688 32.1122C13.0659 32.1233 13.0629 32.1343 13.0601 32.1454ZM26.187 29.3915C26.6292 29.3862 27.0408 29.4066 27.4048 29.5253C27.2838 29.5407 27.1696 29.5568 27.0815 29.5682C27.0321 29.5746 26.991 29.5793 26.9604 29.5829C26.9224 29.5873 26.9168 29.5878 26.9253 29.5878H26.3433L26.3647 29.6102C26.1952 29.6191 25.9773 29.6204 25.7251 29.5819C25.521 29.5507 25.3114 29.4924 25.1118 29.3973C25.1141 29.3975 25.1164 29.3982 25.1187 29.3983C25.4623 29.4149 25.8412 29.3956 26.187 29.3915ZM14.4702 28.8602C14.5703 29.0391 14.6374 29.2315 14.6646 29.4296L14.5845 29.5438C14.582 29.3411 14.5535 29.143 14.4995 28.953C14.4906 28.9217 14.4804 28.891 14.4702 28.8602ZM11.6978 25.83C12.1071 26.2949 12.2815 26.9655 12.0259 27.663C11.9401 27.7075 11.8513 27.761 11.7612 27.8212C11.9926 27.2916 12.0119 26.7551 11.8745 26.2714C11.8307 26.1173 11.7704 25.9699 11.6978 25.83ZM27.8677 25.4374C28.1965 25.4673 28.5278 25.4637 28.8374 25.4637C29.071 25.4637 29.2944 25.4679 29.5063 25.4833C29.4622 25.4886 29.4191 25.4936 29.3774 25.4989C29.1729 25.5251 28.9992 25.5515 28.8765 25.5712C28.8199 25.5802 28.7738 25.587 28.7407 25.5927L28.6821 25.5311H28.5747C28.4218 25.5311 28.15 25.527 27.8677 25.4374Z" fill="#E0A372" stroke="#373743" stroke-width="0.5"/>
<path d="M25.7783 35.1311C25.833 35.1942 25.8811 35.2488 25.918 35.2903C25.9243 35.2974 25.931 35.3045 25.9375 35.3118C26.0927 36.4179 25.3068 37.3481 24.3301 37.5383C24.7296 37.29 25.0665 36.9389 25.2891 36.5208C25.5528 36.0251 25.6555 35.4409 25.5234 34.8342C25.6154 34.9415 25.7034 35.0448 25.7783 35.1311ZM24.4688 33.5422C24.7322 33.5422 24.9934 33.5539 25.2451 33.594C25.2406 33.5947 25.2359 33.5953 25.2314 33.5959C25.1428 33.6098 25.0389 33.63 24.9648 33.6594L24.9541 33.6438H24.8252C24.7394 33.6438 24.4279 33.6946 24.041 33.6301C23.9284 33.6114 23.8201 33.5819 23.7188 33.5432C23.9564 33.5484 24.2211 33.5422 24.4688 33.5422ZM26.7207 19.5569C26.8196 19.6171 26.9631 19.7024 27.1387 19.803C27.4895 20.004 27.9738 20.2682 28.5068 20.5168C29.0387 20.7649 29.6258 21.0018 30.1807 21.1458C30.727 21.2874 31.282 21.3499 31.7266 21.2073L31.7295 21.2063C32.1018 21.0822 32.5202 20.9884 32.8848 20.9504C32.7784 21.0145 32.6756 21.0811 32.5752 21.1448C32.211 21.3759 31.8517 21.5925 31.377 21.6858L30.8447 21.7903L31.2695 22.1272C32.9034 23.4207 34.3176 24.9217 34.9883 25.6731L35.0908 25.7874L35.2393 25.7483C37.7465 25.0866 39.3351 24.1424 40.3018 23.3538C40.3841 23.2866 40.4598 23.2182 40.5332 23.1536L40.3066 23.6721L35.6641 25.97L35.3369 26.1311L35.6064 26.3782C36.4949 27.1928 36.5336 28.1685 36.1445 28.9045C35.9554 29.2622 35.6654 29.5606 35.3184 29.761C35.5687 29.5077 35.7637 29.2064 35.8799 28.8704C36.1414 28.1137 35.9935 27.2275 35.2812 26.3938L35.1309 26.2278C33.1263 24.0786 31.0471 22.5365 29.4688 21.5315C28.6791 21.0287 28.0135 20.6598 27.5449 20.4163C27.3108 20.2945 27.1253 20.2041 26.998 20.1438C26.9347 20.1138 26.886 20.0906 26.8525 20.0754C26.8358 20.0678 26.8223 20.0618 26.8135 20.0579C26.8094 20.056 26.806 20.055 26.8037 20.054C26.8026 20.0535 26.8014 20.0533 26.8008 20.053L26.7998 20.052L26.7373 20.0247L26.6709 20.0334L24.3457 20.3079L24.293 20.3147L24.248 20.3411C21.5407 21.9389 19.846 21.9833 18.835 21.5706C18.7627 21.5411 18.6941 21.508 18.6279 21.4739C19.0203 21.5655 19.4533 21.5831 19.8965 21.5442C21.2913 21.4216 22.8988 20.7354 23.9531 19.8323L26.6416 19.5081C26.6636 19.5217 26.69 19.5382 26.7207 19.5569ZM21.6611 11.9983C21.9922 11.9309 22.3905 11.8551 22.918 11.9026C23.4518 11.9507 24.132 12.1282 25.0068 12.5959L25.1279 12.6604L25.248 12.593C25.9614 12.1906 26.8007 11.9831 27.8154 12.2258C27.0326 12.168 26.3435 12.3587 25.7109 12.6956C25.1944 12.9706 24.7204 13.3393 24.2686 13.7317C24.0423 13.9282 23.8194 14.1332 23.5986 14.3362C23.377 14.5399 23.157 14.7413 22.9346 14.9368C22.6036 15.2238 22.0768 15.5254 21.4482 15.8528C20.8311 16.1742 20.1173 16.5205 19.4629 16.8831C19.4587 16.8854 19.4544 16.8876 19.4502 16.8899C20.0245 16.4838 20.64 16.1038 21.209 15.7483C21.8076 15.3743 22.3643 15.0193 22.7383 14.6946L22.7393 14.6956L22.7441 14.6907C23.3611 14.1251 23.8638 13.5955 24.4561 13.1204L24.7627 12.8743L24.4111 12.7004C23.3877 12.1953 22.4217 12.1835 21.9023 12.342L21.8945 12.344C21.215 12.5734 20.1281 12.6743 18.7969 12.8225C17.4958 12.9673 15.9941 13.1562 14.5234 13.5667C14.3843 13.564 14.2208 13.5408 14.0391 13.5051C15.2657 13.1347 16.533 12.9059 17.7383 12.717C19.2006 12.488 20.5917 12.312 21.6611 11.9983ZM40.9355 11.5188L35.8262 13.7268L35.0537 14.0598L35.8828 14.2024C36.0311 14.2279 36.175 14.2598 36.3145 14.2991C36.2507 14.2851 36.186 14.2721 36.1201 14.26H36.1162C34.0339 13.913 32.8922 13.8122 31.75 13.5198C32.6489 13.6931 33.6136 13.7982 34.9893 13.9973L35.0684 14.009L35.1406 13.9719L40.9717 10.9436L40.9355 11.5188Z" fill="#E0A372" stroke="#373743" stroke-width="0.5"/>
<path d="M42.2363 22.8088L40.6396 23.4592C40.1387 22.1824 39.5328 20.157 39.085 18.0803C38.621 15.9288 38.334 13.7608 38.4844 12.3254L39.874 11.5833L42.2363 22.8088Z" fill="#F08143" stroke="#373743" stroke-width="0.5"/>
<path d="M7.50293 24.3555C7.50848 24.3803 7.51495 24.4091 7.52246 24.4414C7.53185 24.4818 7.54425 24.5274 7.55664 24.5781L7.54492 24.541L7.41113 24.5078L5.97266 24.1475L6.05273 23.4521L7.50293 24.3555Z" fill="#E0A372" stroke="#373743" stroke-width="0.5"/>
<path d="M10.2617 12.5895C10.275 12.7886 10.2574 13.0675 10.2012 13.4205C10.1349 13.8362 10.0223 14.3342 9.87305 14.8873C9.57463 15.9931 9.13478 17.3063 8.64453 18.6031C8.15432 19.8999 7.61543 21.1756 7.12109 22.2067C6.87387 22.7223 6.63893 23.1742 6.42773 23.5358C6.25814 23.8261 6.10793 24.0473 5.98535 24.1969L4.89453 23.9469L8.76562 11.6569L10.2617 12.5895Z" fill="#F08143" stroke="#373743" stroke-width="0.5"/>
<path d="M39.975 11.1375C39.375 11.4813 41.55 23.375 42.45 23.0312C43.583 22.5666 44.467 22.2324 45.121 21.9983C45.9722 21.6936 46.575 20.8906 46.575 19.9866V9.35625C46.575 8.25168 45.8083 7.81684 44.8577 8.37938C43.8123 8.99801 42.2343 9.90783 39.975 11.1375ZM4.7198 8.53155C3.38094 7.57578 1.5 8.52583 1.5 10.1708V22.0011C1.5 22.989 2.22088 23.83 3.193 24.0061C3.6063 24.081 4.07489 24.1691 4.575 24.2687C5.48833 24.462 8.63929 13.1325 8.84928 11.529C8.86547 11.4054 8.79817 11.3118 8.69264 11.2454C7.56908 10.5386 6.06326 9.4906 4.7198 8.53155Z" fill="#6BA368" stroke="#373743" stroke-width="0.5" stroke-miterlimit="2.3662"/>
</svg>
