<svg width="40" height="40" viewBox="0 0 40 40" fill="none" xmlns="http://www.w3.org/2000/svg">
<g opacity="0.8">
<path d="M20.0003 5.17666L19.1537 6.09666C19.3843 6.30865 19.6862 6.42629 19.9995 6.42629C20.3128 6.42629 20.6147 6.30865 20.8453 6.09666L20.0003 5.17666ZM17.6537 13.66C16.5037 12.8217 15.2753 11.8017 14.3487 10.7267C13.392 9.61832 12.917 8.63666 12.917 7.85832H10.417C10.417 9.55332 11.3803 11.115 12.4553 12.36C13.5603 13.64 14.957 14.7883 16.1803 15.68L17.6537 13.66ZM12.917 7.85832C12.917 6.09332 13.7837 5.08666 14.827 4.73666C15.9137 4.36999 17.5337 4.60666 19.1537 6.09666L20.8453 4.25666C18.717 2.29999 16.1737 1.64666 14.0303 2.36666C11.842 3.10332 10.417 5.15999 10.417 7.85832H12.917ZM23.8203 15.68C25.0437 14.79 26.4403 13.64 27.5453 12.36C28.6203 11.115 29.5837 9.55332 29.5837 7.85832H27.0837C27.0837 8.63666 26.6103 9.61832 25.652 10.7267C24.7253 11.8017 23.4987 12.8217 22.3487 13.66L23.8203 15.68ZM29.5837 7.85832C29.5837 5.15999 28.1587 3.10332 25.972 2.36666C23.8287 1.64666 21.2837 2.29999 19.1553 4.25666L20.847 6.09666C22.467 4.60666 24.0887 4.36999 25.1753 4.73666C26.217 5.08666 27.0837 6.09332 27.0837 7.85832H29.5837ZM16.1803 15.68C17.4387 16.5967 18.437 17.3767 20.0003 17.3767V14.8767C19.392 14.8767 19.0587 14.685 17.6537 13.66L16.1803 15.68ZM22.347 13.66C20.942 14.685 20.6087 14.8767 20.0003 14.8767V17.3767C21.5637 17.3767 22.562 16.5983 23.8203 15.68L22.347 13.66Z" fill="#373743"/>
<path d="M8.3335 33.98H12.1002C13.7835 33.98 15.4885 34.1567 17.1268 34.4934C20.052 35.0924 23.0613 35.1591 26.0102 34.69C27.4568 34.4567 28.8768 34.0984 30.1635 33.4784C31.3235 32.9167 32.7452 32.1284 33.7002 31.2434C34.6535 30.36 35.6468 28.915 36.3502 27.785C36.9568 26.815 36.6635 25.6267 35.7068 24.905C35.1689 24.5147 34.5214 24.3045 33.8568 24.3045C33.1923 24.3045 32.5447 24.5147 32.0068 24.905L28.9952 27.18C27.8285 28.0634 26.5535 28.875 25.0352 29.1167C24.8518 29.1456 24.6602 29.1717 24.4602 29.195M24.4602 29.195L24.2768 29.215M24.4602 29.195C24.7269 29.1227 24.9714 28.9853 25.1718 28.795C25.4234 28.578 25.6288 28.3127 25.776 28.0149C25.9232 27.7171 26.0091 27.3927 26.0287 27.0611C26.0483 26.7294 26.0011 26.3972 25.89 26.0842C25.7789 25.7711 25.6061 25.4835 25.3818 25.2384C25.1646 24.9972 24.9117 24.7909 24.6318 24.6267C19.9702 21.845 12.7152 23.9634 8.3335 27.0717M24.4602 29.195C24.4 29.2085 24.3385 29.2152 24.2768 29.215M24.2768 29.215C23.2717 29.3158 22.2591 29.318 21.2535 29.2217" stroke="#373743" stroke-width="2.5" stroke-linecap="round"/>
<path d="M8.3335 25.8334C8.3335 24.4527 7.21421 23.3334 5.8335 23.3334C4.45278 23.3334 3.3335 24.4527 3.3335 25.8334V34.1667C3.3335 35.5474 4.45278 36.6667 5.8335 36.6667C7.21421 36.6667 8.3335 35.5474 8.3335 34.1667V25.8334Z" stroke="#373743" stroke-width="2.5"/>
</g>
</svg>
