<svg width="30" height="30" viewBox="0 0 30 30" fill="none" xmlns="http://www.w3.org/2000/svg">
<g clip-path="url(#clip0_291_1491)">
<path d="M8.78792 0.106531C7.19167 0.181526 6.10167 0.436509 5.15042 0.810235C4.15007 1.18915 3.24412 1.78113 2.49542 2.54512C1.73454 3.29584 1.14595 4.20298 0.770423 5.2037C0.401673 6.15864 0.150423 7.25106 0.080423 8.84596C0.010423 10.4409 -0.00582698 10.9558 0.00167302 15.0293C0.00917302 19.1028 0.027923 19.6128 0.105423 21.2126C0.181673 22.8088 0.435423 23.8987 0.809173 24.8512C1.19417 25.8373 1.70917 26.6723 2.54417 27.5047C3.29567 28.2659 4.20374 28.8544 5.20542 29.2296C6.15917 29.5984 7.25042 29.8496 8.84667 29.9196C10.4442 29.9896 10.9579 30.0058 15.0304 29.9983C19.1029 29.9908 19.6154 29.9721 21.2142 29.8958C22.8142 29.8208 23.8979 29.5646 24.8517 29.1921C25.8516 28.8131 26.7571 28.2211 27.5054 27.4572C28.2666 26.7058 28.8552 25.7978 29.2304 24.7962C29.5992 23.8425 29.8504 22.7513 29.9192 21.1564C29.9892 19.5565 30.0067 19.044 29.9979 14.9718C29.9904 10.8996 29.9729 10.3884 29.8967 8.78846C29.8217 7.18857 29.5667 6.10364 29.1917 5.14995C28.8129 4.15022 28.2214 3.24478 27.4579 2.49637C26.7068 1.73539 25.7992 1.14683 24.7979 0.771487C23.8429 0.404011 22.7529 0.151528 21.1554 0.0840323C19.5592 0.012787 19.0454 -0.0059618 14.9717 0.00153771C10.8979 0.00903721 10.3879 0.027786 8.78792 0.106531ZM8.96292 27.221C7.50042 27.1585 6.70667 26.9148 6.17792 26.711C5.52537 26.4726 4.93492 26.0903 4.45042 25.5924C3.95086 25.11 3.56634 24.5213 3.32542 23.87C3.11917 23.3413 2.87167 22.5476 2.80417 21.0852C2.72917 19.5053 2.71417 19.0303 2.70417 15.0256C2.69667 11.0208 2.71167 10.5471 2.78042 8.96595C2.84292 7.5048 3.08792 6.70985 3.29042 6.18113C3.56042 5.47993 3.88667 4.98121 4.40917 4.45375C4.89195 3.95406 5.48113 3.56956 6.13292 3.32882C6.66167 3.12258 7.45417 2.8776 8.91667 2.8076C10.4979 2.73261 10.9717 2.71761 14.9767 2.70761C18.9804 2.70011 19.4554 2.71511 21.0392 2.78511C22.4992 2.8476 23.2942 3.09009 23.8229 3.29507C24.5229 3.56505 25.0229 3.88878 25.5504 4.41375C26.0779 4.93871 26.4017 5.43493 26.6754 6.13614C26.8817 6.6636 27.1279 7.45605 27.1967 8.9197C27.2717 10.5009 27.2892 10.9758 27.2967 14.9793C27.3029 18.9828 27.2892 19.4578 27.2204 21.0389C27.1567 22.5013 26.9142 23.295 26.7104 23.8262C26.4404 24.5262 26.1142 25.0261 25.5904 25.5511C25.108 26.0506 24.5193 26.4351 23.8679 26.676C23.3404 26.8823 22.5454 27.1285 21.0854 27.1985C19.5029 27.2735 19.0292 27.2885 15.0229 27.2973C11.0167 27.306 10.5454 27.2885 8.96292 27.221ZM21.1917 6.98358C21.1922 7.33962 21.2983 7.68751 21.4965 7.98325C21.6948 8.27899 21.9763 8.50929 22.3054 8.64503C22.6346 8.78076 22.9966 8.81583 23.3457 8.74579C23.6948 8.67576 24.0153 8.50377 24.2667 8.25157C24.518 7.99938 24.6889 7.67832 24.7577 7.329C24.8265 6.97968 24.7902 6.61779 24.6533 6.28912C24.5164 5.96044 24.2852 5.67975 23.9887 5.48254C23.6923 5.28533 23.344 5.18046 22.9879 5.1812C22.5107 5.18219 22.0535 5.3726 21.7167 5.71058C21.3798 6.04856 21.191 6.50644 21.1917 6.98358ZM7.29917 15.0156C7.30315 17.0581 8.11841 19.0154 9.56561 20.4569C11.0128 21.8983 12.9734 22.7059 15.016 22.7019C17.0587 22.698 19.0161 21.8827 20.4577 20.4356C21.8993 18.9885 22.7069 17.0281 22.7029 14.9856C22.6735 12.9599 21.847 11.0274 20.4027 9.60668C18.9583 8.18601 17.0123 7.39159 14.9862 7.39554C12.9602 7.39948 11.0173 8.20147 9.57847 9.62776C8.13964 11.054 7.32073 12.9898 7.29917 15.0156ZM10.0004 15.0106C9.99845 14.0217 10.2898 13.0545 10.8375 12.2312C11.3853 11.4079 12.1649 10.7655 13.0778 10.3853C13.9906 10.0051 14.9958 9.90405 15.9661 10.095C16.9363 10.286 17.8282 10.7604 18.5289 11.4582C19.2295 12.156 19.7075 13.0459 19.9024 14.0154C20.0972 14.9848 20.0002 15.9903 19.6236 16.9046C19.247 17.8189 18.6077 18.6011 17.7866 19.1521C16.9654 19.7031 15.9993 19.9982 15.0104 20.0002C14.3538 20.0015 13.7034 19.8735 13.0962 19.6235C12.4891 19.3734 11.9372 19.0063 11.472 18.5429C11.0067 18.0796 10.6373 17.5292 10.3848 16.9231C10.1324 16.317 10.0017 15.6671 10.0004 15.0106Z" fill="#373743"/>
</g>
<defs>
<clipPath id="clip0_291_1491">
<rect width="30" height="30" fill="white"/>
</clipPath>
</defs>
</svg>
