<svg width="15" height="20" viewBox="0 0 15 20" fill="none" xmlns="http://www.w3.org/2000/svg">
<path d="M13.0811 1.02148C13.2349 1.01174 13.3888 1.04585 13.5254 1.12012C13.6622 1.19454 13.7773 1.30692 13.8574 1.44434C13.9375 1.58181 13.9805 1.73961 13.9805 1.90039V18.1006C13.9804 18.2611 13.9374 18.4184 13.8574 18.5557C13.7774 18.693 13.6631 18.8055 13.5264 18.8799C13.3896 18.9543 13.2351 18.9883 13.0811 18.9785C12.9271 18.9686 12.7783 18.9154 12.6514 18.8242L1.38379 10.7236C1.27163 10.6424 1.17954 10.5343 1.11621 10.4082C1.05296 10.2822 1.01955 10.1421 1.01953 10C1.01953 9.85788 1.05301 9.71777 1.11621 9.5918C1.17954 9.46573 1.27163 9.35666 1.38379 9.27539L12.6514 1.17578C12.7783 1.08465 12.9271 1.03129 13.0811 1.02148ZM11.9883 4.9834L4.98828 9.9834L4.96582 10L4.98828 10.0166L11.9883 15.0166L12.0195 15.0391V4.96094L11.9883 4.9834Z" fill="#6BA368" fill-opacity="0.2" stroke="#373743" stroke-width="0.04"/>
</svg>
