<svg width="22" height="31" viewBox="0 0 22 31" fill="none" xmlns="http://www.w3.org/2000/svg">
<g clip-path="url(#clip0_398_638)">
<path d="M3.92973 18.1375C2.29359 16.4954 1.27526 14.3347 1.04826 12.0234C0.821267 9.7121 1.39964 7.3933 2.68484 5.46211C3.97004 3.53091 5.88254 2.10681 8.09646 1.43247C10.3104 0.758121 12.6887 0.875253 14.8263 1.76391C16.9638 2.65256 18.7283 4.25774 19.819 6.30595C20.9097 8.35416 21.2592 10.7186 20.8079 12.9965C20.3566 15.2744 19.1325 17.3247 17.3441 18.7982C15.5557 20.2716 13.3137 21.0769 11.0001 21.0769H5.81491C5.40454 21.0769 5.07417 21.4086 5.07417 21.8205V23.3077C5.07417 23.7196 5.40454 24.0513 5.81491 24.0513H15.4445C15.8549 24.0513 16.1853 24.3829 16.1853 24.7949V26.2821C16.1853 26.694 15.8549 27.0256 15.4445 27.0256H6.92602C6.51565 27.0256 6.18528 27.3573 6.18528 27.7692V29.2564C6.18528 29.6684 6.51565 30 6.92602 30H15.0742" stroke="#F08143" stroke-width="2" stroke-linecap="round" stroke-linejoin="round"/>
<path d="M17 11C17 12.1867 16.6481 13.3467 15.9888 14.3334C15.3295 15.3201 14.3925 16.0891 13.2961 16.5433C12.1997 16.9974 10.9933 17.1162 9.82946 16.8847C8.66557 16.6532 7.59648 16.0818 6.75736 15.2426C5.91825 14.4035 5.3468 13.3344 5.11529 12.1705C4.88378 11.0067 5.0026 9.80025 5.45673 8.7039C5.91085 7.60754 6.67989 6.67047 7.66658 6.01118C8.65328 5.35189 9.81331 5 11 5" stroke="#F08143" stroke-width="2" stroke-linecap="round" stroke-linejoin="round"/>
</g>
<defs>
<clipPath id="clip0_398_638">
<rect width="22" height="31" fill="white"/>
</clipPath>
</defs>
</svg>
