<svg width="80" height="80" viewBox="0 0 80 80" fill="none" xmlns="http://www.w3.org/2000/svg">
<rect x="1" y="1" width="78" height="78" rx="23" fill="#ECF1F3"/>
<rect x="1" y="1" width="78" height="78" rx="23" stroke="#6BA368" stroke-width="2"/>
<path d="M28.5371 46.9L17.6437 28.822C17.1739 28.042 16.953 27.1467 17.0083 26.2471C17.0637 25.3476 17.3928 24.4834 17.9549 23.762L21.8095 18.84C22.2555 18.2687 22.8339 17.805 23.4988 17.4856C24.1637 17.1663 24.8968 17 25.6402 17H54.3702C55.1136 17 55.8467 17.1663 56.5116 17.4856C57.1765 17.805 57.7549 18.2687 58.2009 18.84L62.0315 23.762C62.5973 24.4811 62.9307 25.3441 62.9903 26.2436C63.0499 27.1432 62.8331 28.0398 62.3667 28.822L51.4733 46.9M37.611 40L23.5333 17.46M42.3994 40L56.4771 17.46M30.4285 28.5H49.5819" stroke="#373743" stroke-width="3" stroke-linecap="round" stroke-linejoin="round"/>
<path d="M40.0053 63C46.6166 63 51.9761 57.8513 51.9761 51.5C51.9761 45.1487 46.6166 40 40.0053 40C33.394 40 28.0344 45.1487 28.0344 51.5C28.0344 57.8513 33.394 63 40.0053 63Z" stroke="#373743" stroke-width="3" stroke-linecap="round" stroke-linejoin="round"/>
<path d="M40.0052 53.8002V49.2002H38.8081" stroke="#373743" stroke-width="3" stroke-linecap="round" stroke-linejoin="round"/>
</svg>
