<svg width="48" height="48" viewBox="0 0 48 48" fill="none" xmlns="http://www.w3.org/2000/svg">
<path d="M45.75 30.6981C45.75 31.8027 44.8546 32.6981 43.75 32.6981H41.4197C40.2205 32.6981 39.2909 33.7461 39.434 34.9367L40.0726 40.2521C40.2005 41.3166 38.7909 41.8088 38.2285 40.8961L33.7621 33.6488C33.398 33.058 32.7536 32.6981 32.0595 32.6981H17.8437C16.7392 32.6981 15.8438 31.8027 15.8438 30.6981V30.0106C15.8438 28.906 16.7392 28.0106 17.8438 28.0106H31.6562C32.7608 28.0106 33.6562 27.1152 33.6562 26.0106V15.2919C33.6562 14.1873 34.5517 13.2919 35.6562 13.2919H43.75C44.8546 13.2919 45.75 14.1873 45.75 15.2919V30.6981ZM30.1562 7.10437C31.2608 7.10437 32.1562 7.9998 32.1562 9.10437V24.5106C32.1562 25.6152 31.2608 26.5106 30.1562 26.5106H16.0481C15.2972 26.5106 14.6095 26.9313 14.2675 27.5998L10.0896 35.7678C9.59332 36.7381 8.12324 36.3272 8.20195 35.2402L8.67878 28.6551C8.76267 27.4966 7.84547 26.5106 6.68401 26.5106H4.25C3.14543 26.5106 2.25 25.6152 2.25 24.5106V9.10437C2.25 7.9998 3.14543 7.10437 4.25 7.10437H30.1562ZM12.8179 20.1866C12.8179 19.2361 11.6688 18.7603 10.9968 19.4323C10.3248 20.1043 10.8006 21.2535 11.7511 21.2535C12.3403 21.2535 12.8179 20.7758 12.8179 20.1866ZM18.5315 20.1866C18.5251 19.2379 17.3765 18.7689 16.7078 19.442C16.0393 20.1151 16.5159 21.2606 17.4647 21.2606C18.0566 21.2606 18.5354 20.7787 18.5315 20.1866ZM24.2451 20.1866C24.2451 19.2361 23.096 18.7603 22.424 19.4323C21.752 20.1043 22.2277 21.2535 23.1783 21.2535C23.7674 21.2535 24.2451 20.7758 24.2451 20.1866Z" fill="#373743"/>
</svg>
