<svg width="15" height="20" viewBox="0 0 15 20" fill="none" xmlns="http://www.w3.org/2000/svg">
<path d="M1.91895 1.02148C1.76511 1.01174 1.61123 1.04585 1.47461 1.12012C1.33777 1.19454 1.22267 1.30692 1.14258 1.44434C1.06248 1.58181 1.01951 1.73961 1.01953 1.90039V18.1006C1.01963 18.2611 1.06261 18.4184 1.14258 18.5557C1.22261 18.693 1.33695 18.8055 1.47363 18.8799C1.61042 18.9543 1.7649 18.9883 1.91895 18.9785C2.07289 18.9686 2.22168 18.9154 2.34863 18.8242L13.6162 10.7236C13.7284 10.6424 13.8205 10.5343 13.8838 10.4082C13.947 10.2822 13.9804 10.1421 13.9805 10C13.9805 9.85788 13.947 9.71777 13.8838 9.5918C13.8205 9.46573 13.7284 9.35666 13.6162 9.27539L2.34863 1.17578C2.22165 1.08465 2.07287 1.03129 1.91895 1.02148ZM3.01172 4.9834L10.0117 9.9834L10.0342 10L10.0117 10.0166L3.01172 15.0166L2.98047 15.0391V4.96094L3.01172 4.9834Z" fill="#6BA368" fill-opacity="0.2" stroke="#373743" stroke-width="0.04"/>
</svg>
