<svg width="60" height="60" viewBox="0 0 60 60" fill="none" xmlns="http://www.w3.org/2000/svg">
<path d="M17.5625 33.225L24.65 24.475C21.1732 23.5966 17.5458 23.4942 14.025 24.175C10.125 25.1375 9.51248 32.5 9.44998 35.9875C9.44562 36.1811 9.49302 36.3723 9.58727 36.5414C9.68152 36.7105 9.81922 36.8514 9.98614 36.9495C10.1531 37.0476 10.3431 37.0994 10.5367 37.0995C10.7304 37.0996 10.9205 37.048 11.0875 36.95L17.5625 33.225Z" fill="#FF6242"/>
<path d="M14.0501 27.5C16.7753 26.9403 19.58 26.8852 22.3251 27.3375L24.6501 24.4875C21.1733 23.6091 17.5458 23.5067 14.0251 24.1875C10.1251 25.1375 9.51257 32.5 9.45007 35.9875C9.44693 36.2005 9.5079 36.4095 9.62507 36.5875C10.0001 32.9125 10.9876 28.2625 14.0501 27.5Z" fill="#FF866E"/>
<path d="M17.5625 33.225L24.65 24.475C21.1732 23.5966 17.5458 23.4942 14.025 24.175C10.125 25.1375 9.51248 32.5 9.44998 35.9875C9.44562 36.1811 9.49302 36.3723 9.58727 36.5414C9.68152 36.7105 9.81922 36.8514 9.98614 36.9495C10.1531 37.0476 10.3431 37.0994 10.5367 37.0995C10.7304 37.0996 10.9205 37.048 11.0875 36.95L17.5625 33.225Z" stroke="#45413C" stroke-width="1.25" stroke-linecap="round" stroke-linejoin="round"/>
<path d="M26.075 41.75L34.825 34.6625C35.7035 38.135 35.806 41.7584 35.125 45.275C34.2125 49.175 26.9 49.7875 23.3625 49.85C23.1689 49.8543 22.9777 49.8069 22.8086 49.7127C22.6395 49.6184 22.4986 49.4807 22.4005 49.3138C22.3023 49.1469 22.2506 48.9568 22.2505 48.7632C22.2504 48.5696 22.302 48.3795 22.4 48.2125L26.075 41.75Z" fill="#FF6242"/>
<path d="M31.7624 45.2625C32.3294 42.5339 32.3845 39.7237 31.9249 36.975L34.7749 34.6625C35.6534 38.135 35.7559 41.7584 35.0749 45.275C34.1624 49.175 26.8499 49.7875 23.3124 49.85C23.0996 49.8516 22.891 49.7908 22.7124 49.675C26.3874 49.35 31.0374 48.3125 31.7624 45.2625Z" fill="#FF866E"/>
<path d="M26.075 41.75L34.825 34.6625C35.7035 38.135 35.806 41.7584 35.125 45.275C34.2125 49.175 26.9 49.7875 23.3625 49.85C23.1689 49.8543 22.9777 49.8069 22.8086 49.7127C22.6395 49.6184 22.4986 49.4807 22.4005 49.3138C22.3023 49.1469 22.2506 48.9568 22.2505 48.7632C22.2504 48.5696 22.302 48.3795 22.4 48.2125L26.075 41.75Z" stroke="#45413C" stroke-width="1.25" stroke-linecap="round" stroke-linejoin="round"/>
<path d="M49.35 26.95C56.125 19.825 53.9875 11.0375 52.925 7.95004C52.8031 7.58301 52.5977 7.24926 52.325 6.97504C52.0517 6.70729 51.7232 6.50251 51.3625 6.37504C48.275 5.31254 39.475 3.17504 32.35 10C23.55 18.325 17.5 33.125 17.5 33.125L26.25 41.875C26.25 41.875 40.975 35.75 49.35 26.95Z" fill="#E8F4FA"/>
<path d="M35.0625 14.8375C41.975 8.25004 50.45 10.0875 53.8125 11.1625C53.6216 10.0719 53.3458 8.99775 52.9875 7.95004C52.8596 7.57822 52.6458 7.24181 52.3634 6.96815C52.0811 6.69448 51.7381 6.49128 51.3625 6.37504C48.275 5.31254 39.475 3.17504 32.35 10C23.55 18.325 17.5 33.125 17.5 33.125L20.8625 36.4875C22.65 32.5 27.9625 21.5875 35.0625 14.8375Z" fill="white"/>
<path d="M49.35 26.95C56.125 19.825 53.9875 11.0375 52.925 7.95004C52.8031 7.58301 52.5977 7.24926 52.325 6.97504C52.0517 6.70729 51.7232 6.50251 51.3625 6.37504C48.275 5.31254 39.475 3.17504 32.35 10C23.55 18.325 17.5 33.125 17.5 33.125L26.25 41.875C26.25 41.875 40.975 35.75 49.35 26.95Z" stroke="#45413C" stroke-width="1.25" stroke-linecap="round" stroke-linejoin="round"/>
<path opacity="0.15" d="M22.7749 55.2625C22.7749 55.7597 24.0919 56.2366 26.4361 56.5883C28.7803 56.9399 31.9597 57.1375 35.2749 57.1375C38.5901 57.1375 41.7695 56.9399 44.1137 56.5883C46.4579 56.2366 47.7749 55.7597 47.7749 55.2625C47.7749 54.7652 46.4579 54.2883 44.1137 53.9366C41.7695 53.585 38.5901 53.3875 35.2749 53.3875C31.9597 53.3875 28.7803 53.585 26.4361 53.9366C24.0919 54.2883 22.7749 54.7652 22.7749 55.2625Z" fill="#45413C"/>
<path d="M28.375 32.0625C28.4659 31.9014 28.5018 31.7152 28.4773 31.5319C28.4527 31.3486 28.3691 31.1783 28.2391 31.0469C28.109 30.9154 27.9397 30.83 27.7567 30.8035C27.5737 30.7769 27.387 30.8108 27.225 30.9C24.7895 32.1459 22.5526 33.7467 20.5875 35.65C18.5046 37.7462 16.8601 40.2363 15.75 42.975C15.7165 43.0524 15.7068 43.1381 15.7222 43.221C15.7375 43.304 15.7772 43.3805 15.8362 43.4408C15.8952 43.5012 15.9708 43.5426 16.0534 43.5598C16.136 43.577 16.2219 43.5692 16.3 43.5375C19.0345 42.4422 21.5243 40.8149 23.625 38.75C25.5352 36.772 27.1365 34.5175 28.375 32.0625Z" fill="#FF6242" stroke="#45413C" stroke-width="1.25" stroke-linecap="round" stroke-linejoin="round"/>
<path d="M35.3 17.15C35.3 18.97 36.0231 20.7155 37.31 22.0025C38.597 23.2895 40.3425 24.0125 42.1625 24.0125C43.9826 24.0125 45.7281 23.2895 47.0151 22.0025C48.302 20.7155 49.0251 18.97 49.0251 17.15C49.0251 15.3299 48.302 13.5844 47.0151 12.2975C45.7281 11.0105 43.9826 10.2875 42.1625 10.2875C40.3425 10.2875 38.597 11.0105 37.31 12.2975C36.0231 13.5844 35.3 15.3299 35.3 17.15Z" fill="#C0DCEB" stroke="#45413C" stroke-width="1.25" stroke-linecap="round" stroke-linejoin="round"/>
<path d="M37.45 17.1125C37.45 17.7363 37.5728 18.354 37.8115 18.9303C38.0502 19.5066 38.4001 20.0302 38.8412 20.4713C39.2823 20.9124 39.8059 21.2623 40.3822 21.501C40.9585 21.7397 41.5762 21.8625 42.2 21.8625C42.8237 21.8625 43.4414 21.7397 44.0177 21.501C44.594 21.2623 45.1176 20.9124 45.5587 20.4713C45.9998 20.0302 46.3497 19.5066 46.5884 18.9303C46.8271 18.354 46.95 17.7363 46.95 17.1125C46.95 16.4888 46.8271 15.8711 46.5884 15.2948C46.3497 14.7185 45.9998 14.1949 45.5587 13.7538C45.1176 13.3127 44.594 12.9628 44.0177 12.7241C43.4414 12.4854 42.8237 12.3625 42.2 12.3625C41.5762 12.3625 40.9585 12.4854 40.3822 12.7241C39.8059 12.9628 39.2823 13.3127 38.8412 13.7538C38.4001 14.1949 38.0502 14.7185 37.8115 15.2948C37.5728 15.8711 37.45 16.4888 37.45 17.1125Z" fill="#00B8F0"/>
<path d="M38.8376 13.7501C38.3954 14.1913 38.0446 14.7154 37.8052 15.2924C37.5658 15.8694 37.4426 16.4879 37.4426 17.1126C37.4426 17.7372 37.5658 18.3558 37.8052 18.9328C38.0446 19.5097 38.3954 20.0338 38.8376 20.4751C39.1561 20.779 39.5134 21.0396 39.9001 21.2501L44.3376 12.8876C43.4481 12.4286 42.4355 12.2647 41.4466 12.4198C40.4578 12.5749 39.5439 13.0408 38.8376 13.7501Z" fill="#4ACFFF"/>
<path d="M37.45 17.1125C37.45 17.7363 37.5728 18.354 37.8115 18.9303C38.0502 19.5066 38.4001 20.0302 38.8412 20.4713C39.2823 20.9124 39.8059 21.2623 40.3822 21.501C40.9585 21.7397 41.5762 21.8625 42.2 21.8625C42.8237 21.8625 43.4414 21.7397 44.0177 21.501C44.594 21.2623 45.1176 20.9124 45.5587 20.4713C45.9998 20.0302 46.3497 19.5066 46.5884 18.9303C46.8271 18.354 46.95 17.7363 46.95 17.1125C46.95 16.4888 46.8271 15.8711 46.5884 15.2948C46.3497 14.7185 45.9998 14.1949 45.5587 13.7538C45.1176 13.3127 44.594 12.9628 44.0177 12.7241C43.4414 12.4854 42.8237 12.3625 42.2 12.3625C41.5762 12.3625 40.9585 12.4854 40.3822 12.7241C39.8059 12.9628 39.2823 13.3127 38.8412 13.7538C38.4001 14.1949 38.0502 14.7185 37.8115 15.2948C37.5728 15.8711 37.45 16.4888 37.45 17.1125Z" stroke="#45413C" stroke-width="1.25" stroke-linecap="round" stroke-linejoin="round"/>
<path d="M14.175 51.8375C13.3 52.7125 7.72503 54.6 4.90003 55.5125C4.37503 55.6875 3.65003 54.925 3.78753 54.4C4.70003 51.5875 6.58753 46.0125 7.53753 45.125C8.72503 43.875 11.825 43.875 13.675 45.7C15.525 47.525 15.3625 50.65 14.175 51.8375Z" fill="#FF8A14" stroke="#45413C" stroke-width="1.25" stroke-linecap="round" stroke-linejoin="round"/>
<path d="M12.6625 49.7375C12.0375 50.35 9.45004 50.9875 8.91254 50.4375C8.37504 49.8875 9.00004 47.2625 9.62504 46.6875C10.0391 46.4048 10.5457 46.2913 11.0408 46.3704C11.5359 46.4494 11.982 46.7149 12.2875 47.1125C12.6695 47.4221 12.9204 47.8647 12.9899 48.3514C13.0594 48.8382 12.9425 49.3333 12.6625 49.7375Z" fill="#FFE500" stroke="#45413C" stroke-width="1.25" stroke-linecap="round" stroke-linejoin="round"/>
<path d="M54.15 29.6125L55.15 31.5C55.1896 31.5747 55.2467 31.6387 55.3163 31.6865C55.3859 31.7344 55.4661 31.7648 55.55 31.775L57.6625 32.025C57.7596 32.0369 57.8515 32.0756 57.9277 32.1369C58.004 32.1982 58.0616 32.2795 58.0941 32.3718C58.1266 32.4641 58.1327 32.5636 58.1116 32.6592C58.0906 32.7547 58.0433 32.8425 57.975 32.9125L56.4875 34.4375C56.4264 34.4961 56.3816 34.5695 56.3575 34.6506C56.3334 34.7317 56.3308 34.8176 56.35 34.9L56.7625 36.9875C56.7808 37.0825 56.7724 37.1807 56.7384 37.2713C56.7044 37.3619 56.646 37.4413 56.5697 37.5008C56.4935 37.5603 56.4022 37.5975 56.3061 37.6084C56.2099 37.6193 56.1127 37.6034 56.025 37.5625L54.1125 36.6125C54.0367 36.5751 53.9533 36.5556 53.8687 36.5556C53.7842 36.5556 53.7008 36.5751 53.625 36.6125L51.7625 37.6625C51.6762 37.7057 51.5799 37.7248 51.4837 37.718C51.3875 37.7111 51.2949 37.6785 51.2157 37.6235C51.1364 37.5685 51.0734 37.4933 51.0332 37.4055C50.9931 37.3178 50.9773 37.2209 50.9875 37.125L51.25 35C51.2615 34.9175 51.2528 34.8333 51.2245 34.7549C51.1961 34.6765 51.1491 34.6062 51.0875 34.55L49.575 33.125C49.5039 33.0587 49.4527 32.974 49.4269 32.8803C49.4012 32.7865 49.402 32.6875 49.4292 32.5942C49.4564 32.5009 49.509 32.417 49.5811 32.3518C49.6532 32.2866 49.7419 32.2427 49.8375 32.225L51.9375 31.8625C52.0207 31.8501 52.0996 31.8174 52.1672 31.7672C52.2348 31.7171 52.289 31.6511 52.325 31.575L53.225 29.6375C53.2643 29.549 53.3278 29.4734 53.4083 29.4196C53.4887 29.3657 53.5828 29.3357 53.6796 29.3331C53.7764 29.3305 53.8719 29.3553 53.9552 29.4048C54.0384 29.4542 54.106 29.5263 54.15 29.6125Z" fill="#FFE500"/>
<path d="M50.6625 34.1375L51.9875 33.9C52.0711 33.8887 52.1505 33.8564 52.2182 33.8061C52.286 33.7558 52.3399 33.6893 52.375 33.6125L53.275 31.675C53.3187 31.5883 53.3857 31.5153 53.4685 31.4644C53.5513 31.4134 53.6465 31.3865 53.7437 31.3865C53.8409 31.3865 53.9362 31.4134 54.019 31.4644C54.1017 31.5153 54.1687 31.5883 54.2125 31.675L55.2 33.5625C55.2396 33.6372 55.2967 33.7012 55.3663 33.749C55.4359 33.7969 55.5161 33.8273 55.6 33.8375L56.9375 34L57.975 32.9375C58.0433 32.8675 58.0906 32.7797 58.1116 32.6842C58.1327 32.5886 58.1266 32.4891 58.0941 32.3968C58.0616 32.3045 58.004 32.2232 57.9277 32.1619C57.8515 32.1006 57.7596 32.0619 57.6625 32.05L55.55 31.8C55.4661 31.7898 55.3859 31.7594 55.3163 31.7115C55.2467 31.6637 55.1896 31.5997 55.15 31.525L54.15 29.6375C54.1083 29.5502 54.0427 29.4765 53.9609 29.4248C53.879 29.3732 53.7843 29.3458 53.6875 29.3458C53.5907 29.3458 53.4959 29.3732 53.4141 29.4248C53.3322 29.4765 53.2667 29.5502 53.225 29.6375L52.325 31.575C52.289 31.6511 52.2348 31.7171 52.1672 31.7672C52.0996 31.8174 52.0207 31.8501 51.9375 31.8625L49.8375 32.225C49.7419 32.2428 49.6532 32.2866 49.5811 32.3518C49.509 32.417 49.4564 32.5009 49.4292 32.5942C49.402 32.6875 49.4012 32.7866 49.4269 32.8803C49.4527 32.974 49.5039 33.0587 49.575 33.125L50.6625 34.1375Z" fill="#FFF48C"/>
<path d="M54.15 29.6125L55.15 31.5C55.1896 31.5747 55.2467 31.6387 55.3163 31.6865C55.3859 31.7344 55.4661 31.7648 55.55 31.775L57.6625 32.025C57.7596 32.0369 57.8515 32.0756 57.9277 32.1369C58.004 32.1982 58.0616 32.2795 58.0941 32.3718C58.1266 32.4641 58.1327 32.5636 58.1116 32.6592C58.0906 32.7547 58.0433 32.8425 57.975 32.9125L56.4875 34.4375C56.4264 34.4961 56.3816 34.5695 56.3575 34.6506C56.3334 34.7317 56.3308 34.8176 56.35 34.9L56.7625 36.9875C56.7808 37.0825 56.7724 37.1807 56.7384 37.2713C56.7044 37.3619 56.646 37.4413 56.5697 37.5008C56.4935 37.5603 56.4022 37.5975 56.3061 37.6084C56.2099 37.6193 56.1127 37.6034 56.025 37.5625L54.1125 36.6125C54.0367 36.5751 53.9533 36.5556 53.8687 36.5556C53.7842 36.5556 53.7008 36.5751 53.625 36.6125L51.7625 37.6625C51.6762 37.7057 51.5799 37.7248 51.4837 37.718C51.3875 37.7111 51.2949 37.6785 51.2157 37.6235C51.1364 37.5685 51.0734 37.4933 51.0332 37.4055C50.9931 37.3178 50.9773 37.2209 50.9875 37.125L51.25 35C51.2615 34.9175 51.2528 34.8333 51.2245 34.7549C51.1961 34.6765 51.1491 34.6062 51.0875 34.55L49.575 33.125C49.5039 33.0587 49.4527 32.974 49.4269 32.8803C49.4012 32.7865 49.402 32.6875 49.4292 32.5942C49.4564 32.5009 49.509 32.417 49.5811 32.3518C49.6532 32.2866 49.7419 32.2427 49.8375 32.225L51.9375 31.8625C52.0207 31.8501 52.0996 31.8174 52.1672 31.7672C52.2348 31.7171 52.289 31.6511 52.325 31.575L53.225 29.6375C53.2643 29.549 53.3278 29.4734 53.4083 29.4196C53.4887 29.3657 53.5828 29.3357 53.6796 29.3331C53.7764 29.3305 53.8719 29.3553 53.9552 29.4048C54.0384 29.4542 54.106 29.5263 54.15 29.6125Z" stroke="#45413C" stroke-width="1.25" stroke-linecap="round" stroke-linejoin="round"/>
<path d="M39.675 50.7375L40 52.425C40.0156 52.491 40.0463 52.5524 40.0897 52.6045C40.1331 52.6565 40.188 52.6978 40.25 52.725L41.8375 53.4C41.9055 53.4363 41.9623 53.4903 42.002 53.5564C42.0416 53.6224 42.0625 53.698 42.0625 53.775C42.0625 53.8521 42.0416 53.9276 42.002 53.9937C41.9623 54.0597 41.9055 54.1138 41.8375 54.15L40.3375 55C40.2774 55.0317 40.2264 55.0782 40.1892 55.135C40.152 55.1919 40.1299 55.2573 40.125 55.325L40 57.0375C39.9932 57.1168 39.9642 57.1926 39.9164 57.2563C39.8686 57.3199 39.8039 57.3688 39.7296 57.3975C39.6554 57.4261 39.5746 57.4334 39.4964 57.4184C39.4183 57.4033 39.3459 57.3667 39.2875 57.3125L38.0375 56.15C37.9901 56.1007 37.9301 56.0654 37.864 56.0478C37.7979 56.0301 37.7282 56.0309 37.6625 56.05L35.9875 56.425C35.9111 56.4408 35.8318 56.4353 35.7583 56.409C35.6849 56.3827 35.6201 56.3367 35.571 56.276C35.5219 56.2154 35.4905 56.1423 35.4802 56.065C35.4699 55.9876 35.4811 55.9089 35.5125 55.8375L36.25 54.275C36.284 54.2161 36.302 54.1493 36.302 54.0813C36.302 54.0133 36.284 53.9464 36.25 53.8875L35.375 52.4125C35.3352 52.3446 35.315 52.2669 35.3168 52.1882C35.3185 52.1095 35.3421 52.0328 35.3848 51.9667C35.4276 51.9006 35.4879 51.8476 35.559 51.8138C35.6301 51.7799 35.7092 51.7665 35.7875 51.775L37.4875 51.975C37.5563 51.9807 37.6254 51.9714 37.6902 51.9476C37.755 51.9239 37.8138 51.8863 37.8625 51.8375L38.9875 50.5875C39.0378 50.5397 39.0991 50.5049 39.166 50.4862C39.2328 50.4675 39.3032 50.4654 39.3711 50.4802C39.4389 50.495 39.5021 50.5262 39.5551 50.5711C39.608 50.6159 39.6492 50.6731 39.675 50.7375Z" fill="#FFE500"/>
<path d="M35.95 53.4375L37.025 53.5625C37.094 53.571 37.1639 53.563 37.2291 53.5391C37.2944 53.5151 37.3529 53.4761 37.4 53.425L38.525 52.175C38.5766 52.1151 38.6439 52.0708 38.7193 52.047C38.7947 52.0232 38.8752 52.0209 38.9518 52.0404C39.0285 52.0599 39.0981 52.1003 39.153 52.1572C39.2079 52.2142 39.2458 52.2852 39.2625 52.3625L39.6 54.05C39.6103 54.1163 39.6375 54.1788 39.6792 54.2314C39.7208 54.284 39.7754 54.3248 39.8375 54.35L40.8375 54.775L41.8875 54.1875C41.9555 54.1513 42.0123 54.0972 42.052 54.0312C42.0916 53.9651 42.1125 53.8895 42.1125 53.8125C42.1125 53.7355 42.0916 53.6599 42.052 53.5939C42.0123 53.5278 41.9555 53.4738 41.8875 53.4375L40.3 52.7625C40.238 52.7353 40.1831 52.694 40.1397 52.642C40.0963 52.5899 40.0656 52.5285 40.05 52.4625L39.7125 50.775C39.696 50.6994 39.6591 50.6297 39.6058 50.5736C39.5526 50.5174 39.485 50.4768 39.4104 50.4562C39.3358 50.4356 39.2569 50.4358 39.1824 50.4568C39.1079 50.4777 39.0405 50.5186 38.9875 50.575L37.8625 51.825C37.8138 51.8738 37.755 51.9113 37.6902 51.9351C37.6254 51.9588 37.5563 51.9682 37.4875 51.9625L35.7875 51.7625C35.7092 51.754 35.6301 51.7674 35.559 51.8013C35.4879 51.8351 35.4276 51.888 35.3848 51.9541C35.3421 52.0203 35.3185 52.097 35.3168 52.1757C35.315 52.2544 35.3352 52.3321 35.375 52.4L35.95 53.4375Z" fill="#FFF48C"/>
<path d="M39.675 50.7375L40 52.425C40.0156 52.491 40.0463 52.5524 40.0897 52.6045C40.1331 52.6565 40.188 52.6978 40.25 52.725L41.8375 53.4C41.9055 53.4363 41.9623 53.4903 42.002 53.5564C42.0416 53.6224 42.0625 53.698 42.0625 53.775C42.0625 53.8521 42.0416 53.9276 42.002 53.9937C41.9623 54.0597 41.9055 54.1138 41.8375 54.15L40.3375 55C40.2774 55.0317 40.2264 55.0782 40.1892 55.135C40.152 55.1919 40.1299 55.2573 40.125 55.325L40 57.0375C39.9932 57.1168 39.9642 57.1926 39.9164 57.2563C39.8686 57.3199 39.8039 57.3688 39.7296 57.3975C39.6554 57.4261 39.5746 57.4334 39.4964 57.4184C39.4183 57.4033 39.3459 57.3667 39.2875 57.3125L38.0375 56.15C37.9901 56.1007 37.9301 56.0654 37.864 56.0478C37.7979 56.0301 37.7282 56.0309 37.6625 56.05L35.9875 56.425C35.9111 56.4408 35.8318 56.4353 35.7583 56.409C35.6849 56.3827 35.6201 56.3367 35.571 56.276C35.5219 56.2154 35.4905 56.1423 35.4802 56.065C35.4699 55.9876 35.4811 55.9089 35.5125 55.8375L36.25 54.275C36.284 54.2161 36.302 54.1493 36.302 54.0813C36.302 54.0133 36.284 53.9464 36.25 53.8875L35.375 52.4125C35.3352 52.3446 35.315 52.2669 35.3168 52.1882C35.3185 52.1095 35.3421 52.0328 35.3848 51.9667C35.4276 51.9006 35.4879 51.8476 35.559 51.8138C35.6301 51.7799 35.7092 51.7665 35.7875 51.775L37.4875 51.975C37.5563 51.9807 37.6254 51.9714 37.6902 51.9476C37.755 51.9239 37.8138 51.8863 37.8625 51.8375L38.9875 50.5875C39.0378 50.5397 39.0991 50.5049 39.166 50.4862C39.2328 50.4675 39.3032 50.4654 39.3711 50.4802C39.4389 50.495 39.5021 50.5262 39.5551 50.5711C39.608 50.6159 39.6492 50.6731 39.675 50.7375Z" stroke="#45413C" stroke-width="1.25" stroke-linecap="round" stroke-linejoin="round"/>
<path d="M14.8251 8.75005C14.723 9.50127 14.4 10.2052 13.897 10.7725C13.3941 11.3397 12.7339 11.7448 12.0003 11.9361C11.2667 12.1274 10.4928 12.0965 9.77688 11.8471C9.06093 11.5977 8.43523 11.1413 7.97923 10.5356C7.52323 9.92994 7.25749 9.20244 7.21576 8.44546C7.17403 7.68848 7.35819 6.93618 7.74485 6.28407C8.13152 5.63196 8.70325 5.10946 9.38744 4.78291C10.0716 4.45637 10.8374 4.34051 11.5876 4.45005C12.5849 4.59567 13.4845 5.12905 14.0907 5.93423C14.6969 6.73942 14.9609 7.75134 14.8251 8.75005Z" fill="#9CEB60"/>
<path d="M11.5875 7.17495C12.2683 7.28167 12.9075 7.5703 13.4378 8.01035C13.9681 8.45041 14.3696 9.02553 14.6 9.67495C14.714 9.37743 14.7896 9.06659 14.825 8.74995C14.9497 7.75313 14.6773 6.74726 14.0665 5.94965C13.4558 5.15203 12.5557 4.62671 11.5609 4.48717C10.566 4.34763 9.55622 4.60507 8.74961 5.20388C7.94299 5.80268 7.40433 6.69479 7.24999 7.68745C7.17814 8.33168 7.26393 8.98373 7.49999 9.58745C7.81383 8.78646 8.3869 8.11366 9.12776 7.6764C9.86862 7.23913 10.7346 7.06259 11.5875 7.17495Z" fill="#C8FFA1"/>
<path d="M14.8251 8.75005C14.723 9.50127 14.4 10.2052 13.897 10.7725C13.3941 11.3397 12.7339 11.7448 12.0003 11.9361C11.2667 12.1274 10.4928 12.0965 9.77688 11.8471C9.06093 11.5977 8.43523 11.1413 7.97923 10.5356C7.52323 9.92994 7.25749 9.20244 7.21576 8.44546C7.17403 7.68848 7.35819 6.93618 7.74485 6.28407C8.13152 5.63196 8.70325 5.10946 9.38744 4.78291C10.0716 4.45637 10.8374 4.34051 11.5876 4.45005C12.5849 4.59567 13.4845 5.12905 14.0907 5.93423C14.6969 6.73942 14.9609 7.75134 14.8251 8.75005Z" stroke="#45413C" stroke-width="1.25" stroke-linecap="round" stroke-linejoin="round"/>
<path d="M7.32505 9.12499C6.37505 9.77499 4.46255 11.25 5.00005 12.325C5.53755 13.4 18.1126 5.88749 17.6751 4.82499C17.2376 3.76249 14.5501 4.97499 13.6001 5.42499" stroke="#45413C" stroke-width="1.25" stroke-linecap="round" stroke-linejoin="round"/>
</svg>
