<svg width="30" height="30" viewBox="0 0 30 30" fill="none" xmlns="http://www.w3.org/2000/svg">
<path d="M30 1.875V16.9775C29.7266 16.7041 29.4336 16.46 29.1211 16.2451C28.8086 16.0303 28.4766 15.835 28.125 15.6592V9.375H1.875V24.375H17.8125L15.9375 26.25H0V1.875H30ZM28.125 7.5V3.75H1.875V7.5H28.125ZM20.6689 21.4746C20.6689 20.8301 20.791 20.2295 21.0352 19.6729C21.2793 19.1162 21.6113 18.6328 22.0312 18.2227C22.4512 17.8125 22.9395 17.4854 23.4961 17.2412C24.0527 16.9971 24.6582 16.8799 25.3125 16.8896C25.9668 16.8896 26.5771 17.0117 27.1436 17.2559C27.71 17.5 28.2031 17.832 28.623 18.252C29.043 18.6719 29.375 19.1699 29.6191 19.7461C29.8633 20.3223 29.9854 20.9326 29.9854 21.5771C29.9854 22.2119 29.8682 22.8076 29.6338 23.3643C29.3994 23.9209 29.0723 24.4141 28.6523 24.8438C28.2324 25.2734 27.749 25.6055 27.2021 25.8398C26.6553 26.0742 26.0547 26.1963 25.4004 26.2061C24.9316 26.2061 24.4727 26.1426 24.0234 26.0156C23.5742 25.8887 23.1494 25.6982 22.749 25.4443L19.8047 28.3887C19.5801 28.6133 19.3604 28.8379 19.1455 29.0625C18.9307 29.2871 18.7061 29.5068 18.4717 29.7217C18.374 29.8096 18.2812 29.8779 18.1934 29.9268C18.1055 29.9756 17.9883 30 17.8418 30C17.5879 30 17.3633 29.9023 17.168 29.707C16.9727 29.5117 16.875 29.2871 16.875 29.0332C16.875 28.8965 16.8994 28.7842 16.9482 28.6963C16.9971 28.6084 17.0654 28.5107 17.1533 28.4033C17.3584 28.1689 17.5732 27.9443 17.7979 27.7295C18.0225 27.5146 18.252 27.2949 18.4863 27.0703C18.9844 26.5723 19.4727 26.0791 19.9512 25.5908C20.4297 25.1025 20.9229 24.6094 21.4307 24.1113C21.1865 23.7109 21.001 23.291 20.874 22.8516C20.7471 22.4121 20.6787 21.9531 20.6689 21.4746ZM22.5439 21.6504C22.5439 22.0215 22.6123 22.3682 22.749 22.6904C22.8857 23.0127 23.0762 23.2959 23.3203 23.54C23.5645 23.7842 23.8477 23.9746 24.1699 24.1113C24.4922 24.248 24.8438 24.3164 25.2246 24.3164C25.6055 24.3164 25.9668 24.2432 26.3086 24.0967C26.6504 23.9502 26.9629 23.7402 27.2461 23.4668C27.5293 23.1934 27.7441 22.8906 27.8906 22.5586C28.0371 22.2266 28.1201 21.8652 28.1396 21.4746C28.1396 21.123 28.0664 20.7861 27.9199 20.4639C27.7734 20.1416 27.5684 19.8486 27.3047 19.585C27.041 19.3213 26.748 19.1162 26.4258 18.9697C26.1035 18.8232 25.7617 18.7451 25.4004 18.7354C25.0195 18.7354 24.6582 18.8135 24.3164 18.9697C23.9746 19.126 23.6719 19.3457 23.4082 19.6289C23.1445 19.9121 22.9346 20.2197 22.7783 20.5518C22.6221 20.8838 22.5439 21.25 22.5439 21.6504Z" fill="#373743"/>
</svg>
