<svg width="80" height="80" viewBox="0 0 80 80" fill="none" xmlns="http://www.w3.org/2000/svg">
<rect x="1" y="1" width="78" height="78" rx="23" fill="#ECF1F3"/>
<rect x="1" y="1" width="78" height="78" rx="23" stroke="#6BA368" stroke-width="2"/>
<path d="M20 64H57.3333M22.6667 56H28M25.3333 56V64M34.6667 41.3333L30.6667 45.3333M52 16L60 24M38.6667 64C41.992 64.0003 45.2349 62.9645 47.9444 61.0366C50.6538 59.1086 52.6953 56.3844 53.7849 53.2426C54.8745 50.1008 54.9581 46.6976 54.0241 43.506C53.0901 40.3145 51.1849 37.4933 48.5733 35.4347M30.6667 37.3333L38.6667 45.3333L54.6667 29.3333L46.6667 21.3333L30.6667 37.3333Z" stroke="#373743" stroke-width="4" stroke-linecap="round" stroke-linejoin="round"/>
</svg>
