<svg width="32" height="32" viewBox="0 0 32 32" fill="none" xmlns="http://www.w3.org/2000/svg">
<path fill-rule="evenodd" clip-rule="evenodd" d="M2.39999 16C2.39999 17.786 2.75177 19.5545 3.43523 21.2045C4.1187 22.8545 5.12046 24.3538 6.38334 25.6167C7.64622 26.8795 9.14547 27.8813 10.7955 28.5648C12.4455 29.2482 14.214 29.6 16 29.6C17.786 29.6 19.5545 29.2482 21.2045 28.5648C22.8545 27.8813 24.3538 26.8795 25.6166 25.6167C26.8795 24.3538 27.8813 22.8545 28.5648 21.2045C29.2482 19.5545 29.6 17.786 29.6 16C29.6 12.3931 28.1671 8.93384 25.6166 6.38335C23.0662 3.83285 19.6069 2.4 16 2.4C12.393 2.4 8.93384 3.83285 6.38334 6.38335C3.83285 8.93384 2.39999 12.3931 2.39999 16ZM28 16C28 19.1826 26.7357 22.2348 24.4853 24.4853C22.2348 26.7357 19.1826 28 16 28C12.8174 28 9.76515 26.7357 7.51471 24.4853C5.26428 22.2348 3.99999 19.1826 3.99999 16C3.99999 12.8174 5.26428 9.76515 7.51471 7.51472C9.76515 5.26428 12.8174 4 16 4C19.1826 4 22.2348 5.26428 24.4853 7.51472C26.7357 9.76515 28 12.8174 28 16Z" fill="#F08143"/>
<path fill-rule="evenodd" clip-rule="evenodd" d="M10.4 16C10.4 23.0336 12.7072 28.8 16 28.8C19.2928 28.8 21.6 23.0336 21.6 16C21.6 8.9664 19.2928 3.2 16 3.2C12.7072 3.2 10.4 8.9664 10.4 16ZM20 16C20 22.2224 18.008 27.2 16 27.2C13.992 27.2 12 22.2224 12 16C12 9.7776 13.992 4.8 16 4.8C18.008 4.8 20 9.7776 20 16Z" fill="#F08143"/>
<path d="M5.976 8.4992L7.048 7.312C7.21866 7.4656 7.4016 7.61547 7.5968 7.7616C9.7056 9.3424 13.0336 10.3056 16.6608 10.3056C19.7536 10.3056 22.64 9.6064 24.7488 8.4016C25.2346 8.12661 25.6937 7.80682 26.12 7.4464L27.16 8.6624C26.6821 9.07093 26.1435 9.4464 25.544 9.7888C23.1808 11.1408 20.0208 11.9056 16.6608 11.9056C12.7088 11.9056 9.0416 10.8448 6.6368 9.0416C6.40855 8.87018 6.18807 8.69027 5.976 8.4992ZM5.976 23.52L7.048 24.704C7.21866 24.5493 7.4016 24.4 7.5968 24.256C9.7056 22.6752 13.0336 21.712 16.6608 21.712C19.7536 21.712 22.64 22.4096 24.7488 23.616C25.2629 23.9115 25.72 24.2293 26.12 24.5696L27.16 23.3536C26.6576 22.9286 26.1166 22.5515 25.544 22.2272C23.1808 20.8768 20.0208 20.112 16.6608 20.112C12.7088 20.112 9.0416 21.1728 6.6368 22.9744C6.40213 23.1504 6.18186 23.3333 5.976 23.52ZM3.2 16.8V15.2H28.8V16.8H3.2Z" fill="#F08143"/>
</svg>
